# xmcd
#
# Track frame offsets: 
#        183
#        10920
#        22165
#        36165
#        48983
#        61835
#        72718
#        82025
#        94958
#        106665
#        123210
#        132540
#        143545
#        153810
#        166690
#        176448
#        189123
#        201355
#        213113
#        225255
#        236293
#        249375
#        258715
#        271918
#        282080
#
# Disc length: 3930 seconds
#
# Revision: 7
# Processed by: cddbd v1.5.2PL0 Copyright (c) Steve Scherf et al.
# Submitted via: ExactAudioCopyFreeDBPlugin 1.0
#
DISCID=4d0f5819
DTITLE=Various Artist - The Sue Records Story:  New York City - The S
DTITLE=ound of Soul [box set]
DYEAR=1994
DGENRE=Rhythm and Blues
TTITLE0=Eddie and Ernie - Time Waits for No One
TTITLE1=The Soul Sisters - Think About the Good Times
TTITLE2=Eddie and Ernie - Outcast
TTITLE3=Baby Washington - Only Those in Love
TTITLE4=Bill Doggett - Fat Back
TTITLE5=Tina Britt - The Real Thing
TTITLE6=The Hollywood Flames - Annie Don't Love Me No More
TTITLE7=Marjorie Black - One More Hurt
TTITLE8=The Entertainers - Love in My Heart
TTITLE9=Eddie and Ernie - I'm Going for Myself
TTITLE10=Billy Prophet - What Can I Do
TTITLE11=Ike and Tina Turner - Two is a Couple
TTITLE12=Ike Turner and His Kings of Rhythm - The New Breed, Part 1
TTITLE13=Ike and Tina Turner - Stagger Lee and Billy
TTITLE14=Eddie and Ernie - I Can't Do It
TTITLE15=The Poets - She Blew a Good Thing
TTITLE16=Derek Martin - Count to Ten
TTITLE17=Sandra Phillips - World Without Sunshine
TTITLE18=Derek Martin - If You Go
TTITLE19=The Hollywood Flames - I'm Gonna Stand By You
TTITLE20=Bobby Lee - I Was Born a Loser
TTITLE21=The Poets - So Young and So Innocent
TTITLE22=Jean Wells - If You've Ever Loved Someone
TTITLE23=The Magnificent 7 - She's Called a Woman
TTITLE24=Juggy - Soul at Sunrise
EXTD=
EXTT0=
EXTT1=
EXTT2=
EXTT3=
EXTT4=
EXTT5=
EXTT6=
EXTT7=
EXTT8=
EXTT9=
EXTT10=
EXTT11=
EXTT12=
EXTT13=
EXTT14=
EXTT15=
EXTT16=
EXTT17=
EXTT18=
EXTT19=
EXTT20=
EXTT21=
EXTT22=
EXTT23=
EXTT24=
PLAYORDER=
